# xmcd CD database file
#
# Track frame offsets:
#	150
#	18212
#	38587
#	62387
#	80757
#	103670
#
# Disc length: 1705 seconds
#
# Revision: 0
# Processed by: cddbd v1.5.2PL0 Copyright (c) Steve Scherf et al.
# Submitted via: CDex 1.70beta2
#
DISCID=3c06a706
DTITLE=Chris Rea - The Blue Jukebox [Promo]
DYEAR=2004
DGENRE=Blues
TTITLE0=Baby Don't Cry (Radio Version)
TTITLE1=The Beat Goes On
TTITLE2=Long Is The Time, Hard Is The Road
TTITLE3=Monday Morning
TTITLE4=Speed
TTITLE5=Baby Don't Cry (Album Version)
EXTD=YEAR: 2004
EXTT0=
EXTT1=
EXTT2=
EXTT3=
EXTT4=
EXTT5=
PLAYORDER=
